<?xml version="1.0" encoding="UTF-8"?>
<svg id="Layer_2" data-name="Layer 2" xmlns="http://www.w3.org/2000/svg" viewBox="0 0 134.97 22.34">
  <defs>
    <style>
      .cls-1 {
        stroke-width: .21px;
      }

      .cls-1, .cls-2 {
        fill: #dbe1e1;
        stroke: #dbe1e1;
        stroke-miterlimit: 10;
      }

      .cls-2 {
        stroke-width: .36px;
      }
    </style>
  </defs>
  <g id="main">
    <g>
      <g>
        <path class="cls-1" d="M117.16.18h6.77v21.97h-6.77V.18ZM123.2,21.44V.93h-5.31v20.51h5.31Z"/>
        <path class="cls-1" d="M128.09.18h6.77v21.97h-6.77V.18ZM134.13,21.44V.93h-5.31v20.51h5.31Z"/>
      </g>
      <g>
        <path class="cls-2" d="M11.31,7.1v-.39c0-1.72-.52-2.11-2.74-2.11-2.54,0-3.15.39-3.15,2.11,0,.71.15,1.23.44,1.49.32.33.5.36,2.16.49,4.72.39,4.78.39,6,.81,2.13.75,2.83,2.17,2.83,5.65,0,2.92-.38,4.41-1.37,5.39-1.28,1.23-2.86,1.62-6.7,1.62-4.95,0-6.82-.55-7.81-2.3-.61-1.07-.79-2.24-.79-4.87h4.95v.42c0,.91.17,1.46.58,1.79.44.39.67.42,3.06.42,1.69,0,1.95-.03,2.39-.45.38-.36.55-.84.55-1.72,0-1.53-.41-1.88-2.45-2.01-3.18-.19-4.78-.39-5.77-.65C1.09,12.09.21,10.5.21,6.64.21,4.01.71,2.39,1.81,1.51,3.1.51,4.73.18,8.52.18c4.08,0,5.74.46,6.73,1.85.73.97,1.05,2.27,1.05,4.09l-.03.97h-4.95Z"/>
        <path class="cls-2" d="M29.27,14.46v7.53h-5.22v-7.53L17.18.35h5.95l1.75,4.15.87,2.11c.29.68.55,1.36.85,2.08h.17c.29-.68.61-1.46.87-2.08l.9-2.11,1.81-4.15h6l-7.08,14.12Z"/>
        <path class="cls-2" d="M48.04,7.1v-.39c0-1.72-.52-2.11-2.74-2.11-2.54,0-3.15.39-3.15,2.11,0,.71.15,1.23.44,1.49.32.33.5.36,2.16.49,4.72.39,4.78.39,6,.81,2.13.75,2.83,2.17,2.83,5.65,0,2.92-.38,4.41-1.37,5.39-1.28,1.23-2.86,1.62-6.7,1.62-4.95,0-6.82-.55-7.81-2.3-.61-1.07-.79-2.24-.79-4.87h4.95v.42c0,.91.17,1.46.58,1.79.44.39.67.42,3.06.42,1.69,0,1.95-.03,2.39-.45.38-.36.55-.84.55-1.72,0-1.53-.41-1.88-2.45-2.01-3.18-.19-4.78-.39-5.77-.65-2.42-.68-3.29-2.27-3.29-6.13,0-2.63.5-4.25,1.6-5.13,1.28-1.01,2.91-1.33,6.7-1.33,4.08,0,5.74.46,6.73,1.85.73.97,1.05,2.27,1.05,4.09l-.03.97h-4.95Z"/>
        <path class="cls-2" d="M64.95,21.99h-5.22V5.31h-4.92V.35h15.39v4.97h-5.25v16.68Z"/>
        <path class="cls-2" d="M77.25,9.01h8.28v3.99h-8.28v4.22h9.03v4.77h-14.25V.35h14.08v4.77h-8.86v3.89Z"/>
        <path class="cls-2" d="M112.99,21.99h-5.13v-6.49c0-2.11.03-3.02.26-7.56l.12-2.53h-.17l-.67,2.47-.7,2.47-1.46,4.93-2.01,6.72h-4.46l-2.07-6.75-1.49-4.9c-.35-1.27-.82-2.92-1.4-4.93h-.17l.15,2.53c.23,4.54.29,5.74.29,7.56v6.49h-5.13V.35h8.13l1.81,6.2c.61,2.08.88,3.05,1.34,4.8.2.88.41,1.75.64,2.6h.2l.44-1.85c.64-2.69.73-3.08,1.43-5.52l1.75-6.23h8.31v21.65Z"/>
      </g>
    </g>
  </g>
</svg>